<svg xmlns="http://www.w3.org/2000/svg" width="1em" height="1em" viewBox="0 0 24 24"><path fill="#535353" d="M5.843 4.568a8.707 8.707 0 0 1 12.314 12.314l-1.187 1.174q-1.312 1.287-3.406 3.312a2.25 2.25 0 0 1-3.128 0l-3.491-3.396q-.659-.646-1.102-1.09a8.707 8.707 0 0 1 0-12.314m11.253 1.06A7.207 7.207 0 1 0 6.903 15.822l1.488 1.468q1.228 1.201 3.088 3a.75.75 0 0 0 1.042 0l3.395-3.3q.705-.691 1.18-1.168a7.207 7.207 0 0 0 0-10.192M12 7.999a3.002 3.002 0 1 1 0 6.004A3.002 3.002 0 0 1 12 8m0 1.5a1.502 1.502 0 1 0 0 3.004a1.502 1.502 0 0 0 0-3.003"/></svg>